<?xml version="1.0" standalone="no"?>
<!DOCTYPE svg PUBLIC "-//W3C//DTD SVG 20010904//EN"
 "http://www.w3.org/TR/2001/REC-SVG-20010904/DTD/svg10.dtd">
<svg version="1.0" xmlns="http://www.w3.org/2000/svg"
 width="300.000000pt" height="376.000000pt" viewBox="0 0 300.000000 376.000000"
 preserveAspectRatio="xMidYMid meet">
<metadata>
Created by potrace 1.10, written by Peter Selinger 2001-2011
</metadata>
<g transform="translate(0.000000,376.000000) scale(0.050000,-0.050000)"
fill="#000000" stroke="none">
<path d="M2108 7358 c-22 -25 -61 -38 -112 -38 -104 0 -156 -30 -156 -91 0
-27 9 -49 20 -49 26 0 26 -54 0 -70 -26 -16 -202 47 -232 83 -39 48 -150 9
-238 -83 -44 -46 -92 -88 -107 -93 -16 -5 -34 -44 -41 -86 -6 -43 -25 -82 -40
-87 -21 -7 -25 4 -14 48 l13 58 -42 -65 c-32 -48 -59 -66 -106 -69 -35 -2 -81
-5 -103 -8 -22 -2 -83 -5 -135 -6 -79 -2 -95 -8 -95 -40 0 -20 -23 -52 -50
-70 -42 -28 -50 -48 -50 -131 0 -81 -9 -105 -50 -137 -59 -47 -72 -164 -18
-164 21 0 28 -11 20 -32 -7 -17 -12 -35 -12 -40 0 -4 -9 -8 -20 -8 -11 0 -20
18 -20 40 0 30 -13 40 -55 40 -102 -1 -114 -33 -100 -260 5 -63 0 -70 -47 -72
-96 -4 -137 -92 -99 -216 10 -34 29 -102 43 -152 31 -112 70 -160 48 -60 -42
197 -46 270 -15 300 23 23 32 24 39 5 15 -42 50 -28 36 14 -17 54 26 133 56
103 12 -12 40 -22 63 -22 36 0 34 6 -19 48 -33 27 -55 54 -49 60 19 19 108
-31 146 -82 40 -53 26 -102 -19 -65 -22 19 -28 17 -28 -9 0 -18 22 -43 50 -56
57 -26 64 -52 19 -69 -19 -7 -42 3 -58 25 -97 139 -164 176 -101 56 49 -95 34
-147 -22 -73 -25 32 -27 32 -27 -10 -1 -25 -10 -45 -21 -45 -11 0 -20 14 -20
30 0 17 -9 30 -20 30 -27 0 -25 -24 7 -71 60 -87 101 -269 76 -337 -13 -36
-24 -123 -24 -193 -1 -71 -8 -169 -16 -219 -8 -49 -7 -130 1 -180 8 -49 25
-166 37 -260 13 -93 35 -184 51 -202 15 -17 28 -55 28 -83 0 -29 8 -57 17 -63
26 -16 45 -192 51 -472 4 -198 15 -277 50 -380 51 -146 59 -222 64 -580 5
-401 148 -921 301 -1096 31 -36 57 -73 57 -83 0 -10 12 -30 26 -45 56 -57 114
-174 114 -229 0 -32 36 -119 80 -195 44 -75 80 -152 80 -172 0 -19 14 -46 30
-60 17 -14 30 -41 30 -61 0 -20 10 -43 21 -50 12 -7 16 -27 10 -44 -7 -17 6
-61 29 -99 22 -37 40 -81 40 -97 0 -45 286 -220 323 -197 11 7 40 3 64 -8 161
-78 526 -61 723 34 70 34 140 62 156 62 16 0 52 18 80 40 28 22 108 78 178
125 244 162 314 223 315 270 1 28 13 45 33 45 48 0 341 261 365 325 12 32 36
55 57 55 46 0 383 331 398 391 6 25 24 51 40 57 16 6 38 31 48 56 11 26 51 87
89 136 37 50 69 114 70 144 0 29 10 59 21 66 11 7 20 43 20 81 0 38 9 69 19
69 19 0 30 51 48 216 8 77 6 84 -29 73 -26 -8 -38 -2 -38 20 0 17 -7 31 -16
31 -37 0 -60 -49 -50 -110 6 -37 1 -71 -11 -78 -14 -9 -27 16 -35 67 -7 45
-22 81 -33 81 -12 0 -15 -25 -8 -60 9 -44 5 -60 -17 -60 -18 0 -27 -19 -25
-55 2 -30 -4 -77 -13 -103 -14 -40 -11 -46 16 -36 25 10 32 0 32 -48 0 -33 -8
-55 -18 -49 -9 6 -22 -9 -29 -32 -9 -35 -21 -40 -70 -31 -64 13 -114 -103 -64
-153 21 -21 23 -18 28 55 2 21 14 42 28 47 45 15 31 -130 -15 -155 -26 -14
-40 -42 -40 -81 0 -60 -28 -80 -47 -34 -8 18 -19 14 -41 -13 -22 -27 -25 -48
-11 -73 30 -58 21 -74 -11 -19 -37 65 -40 168 -4 154 52 -20 79 68 78 257 0
177 -33 289 -84 289 -21 0 -7 -197 16 -226 28 -34 27 -234 -1 -234 -12 0 -38
15 -58 33 -21 18 -37 25 -37 15 0 -11 19 -35 42 -55 l42 -36 -40 -38 c-26 -24
-37 -53 -30 -78 6 -23 1 -41 -10 -41 -12 0 -36 -15 -54 -33 -40 -40 -68 -11
-72 73 -2 28 -12 2 -22 -58 -14 -74 -13 -111 1 -120 25 -16 7 -102 -21 -102
-10 0 -13 18 -6 40 9 28 4 40 -19 40 -17 0 -31 -9 -31 -19 0 -11 -15 -14 -33
-7 -27 10 -31 5 -18 -26 37 -89 39 -135 3 -122 -29 12 -32 4 -21 -56 9 -45 6
-70 -8 -70 -12 0 -37 -29 -56 -65 l-34 -65 -15 58 c-11 40 -7 71 13 99 32 47
38 81 11 64 -21 -13 -40 29 -28 63 5 13 20 19 34 14 35 -13 85 207 54 238 -12
12 -22 15 -22 6 0 -9 -15 -5 -33 11 -30 24 -32 22 -21 -24 10 -39 3 -54 -32
-70 -24 -10 -49 -41 -55 -69 -6 -27 -27 -86 -47 -129 -37 -82 -8 -190 47 -176
12 3 21 -8 21 -24 0 -24 -14 -21 -70 12 -39 23 -70 31 -70 19 0 -51 -37 -16
-48 46 -13 68 -62 129 -85 105 -7 -6 -4 -24 7 -38 63 -81 42 -122 -29 -55 -52
48 -65 50 -65 10 0 -35 -27 -38 -80 -10 -25 13 -42 13 -50 0 -7 -11 0 -20 15
-20 63 0 76 -47 20 -72 -51 -22 -52 -24 -15 -40 22 -9 64 -43 94 -76 30 -33
60 -55 66 -48 7 6 -2 25 -19 42 -17 17 -31 37 -31 44 0 23 89 -13 115 -46 33
-42 32 -85 -2 -72 -15 6 -33 -4 -40 -21 -15 -40 -73 -41 -73 -1 0 17 -14 30
-31 30 -22 0 -13 -22 33 -80 36 -44 60 -85 54 -91 -6 -6 -31 14 -55 44 -36 46
-47 50 -62 26 -24 -38 -24 -59 1 -59 11 0 4 -18 -15 -40 -51 -60 -81 23 -34
94 46 71 21 126 -29 64 -32 -40 -42 -43 -70 -20 -27 23 -32 22 -32 -7 0 -18 9
-28 20 -21 12 7 20 -13 20 -47 0 -33 8 -63 18 -66 17 -7 29 -74 24 -131 -1
-14 -15 -20 -30 -14 -15 6 -34 1 -41 -11 -8 -12 -22 -17 -31 -11 -10 6 -30 -8
-46 -30 -47 -68 -94 -31 -94 75 0 73 -5 86 -27 68 -15 -13 -34 -16 -43 -8 -9
8 -11 -4 -5 -28 11 -46 -52 -117 -86 -96 -10 6 -19 2 -19 -9 0 -38 42 -45 90
-14 57 37 82 11 46 -47 -26 -42 -76 -56 -76 -22 0 11 -14 14 -31 8 -18 -7 -43
4 -59 25 -28 37 -29 36 -29 -5 -1 -56 -41 -70 -86 -32 -38 34 -95 6 -95 -46 0
-43 -39 -54 -100 -29 -49 20 -55 31 -40 69 16 44 13 46 -76 43 -78 -2 -94 -9
-94 -40 0 -21 -12 -42 -26 -47 -19 -7 -22 6 -12 48 17 69 22 76 65 79 18 1 48
3 66 5 18 2 37 22 44 46 9 35 17 39 39 20 29 -24 54 -12 54 26 0 47 -89 64
-111 21 -12 -22 -36 -37 -55 -34 -20 3 -34 -7 -34 -25 0 -39 -19 -39 -76 1
-33 22 -42 43 -33 72 10 30 6 37 -12 26 -18 -12 -22 -3 -12 34 13 51 -45 131
-74 103 -7 -8 -13 -5 -13 5 0 29 115 72 158 59 44 -14 77 22 47 52 -12 12 -38
10 -71 -5 -38 -17 -74 -18 -133 -3 -68 17 -84 16 -99 -11 -22 -40 -76 -3 -104
70 -9 25 -34 46 -54 46 -42 0 -124 70 -124 106 0 14 -19 60 -43 104 -75 140
-82 190 -31 233 98 84 113 84 108 4 -4 -79 93 -140 130 -81 23 36 19 185 -7
242 -41 90 47 144 147 90 23 -12 128 -25 234 -29 105 -3 208 -6 227 -7 53 -2
141 10 175 23 116 46 186 58 199 37 8 -13 29 -17 48 -10 26 10 29 19 11 40
-18 22 -16 28 8 28 18 0 37 -9 44 -20 7 -11 32 -20 55 -20 33 0 38 5 19 24
-38 38 -28 62 20 49 45 -11 130 41 232 142 37 36 54 41 85 24 41 -21 52 -69
21 -88 -10 -6 13 -44 51 -86 38 -41 74 -95 80 -120 6 -25 18 -45 27 -45 8 0
20 -19 27 -43 15 -59 65 -18 84 68 8 35 28 77 45 94 28 28 28 32 -1 37 -19 4
-28 19 -22 35 6 16 19 24 29 18 10 -6 18 15 18 48 0 33 11 63 23 67 13 5 24
40 25 80 2 54 9 68 32 60 23 -8 25 -4 7 15 -14 15 -19 54 -13 94 15 89 -135
347 -221 384 -22 10 -71 62 -123 132 -35 47 -83 96 -158 161 -42 36 -111 70
-142 70 -17 0 -36 13 -43 30 -6 16 -23 30 -38 30 -15 0 -70 25 -123 55 -110
64 -244 114 -260 98 -25 -25 16 -71 103 -112 149 -73 158 -131 39 -265 -52
-59 -79 -72 -174 -83 -121 -14 -214 -48 -214 -78 0 -23 145 -1 232 35 36 15
74 18 92 8 32 -17 60 3 160 117 58 67 133 70 150 6 7 -28 148 -131 216 -159
93 -37 210 -158 194 -200 -9 -26 -6 -28 18 -8 25 20 45 9 118 -68 51 -54 77
-97 64 -101 -36 -12 -8 -45 38 -45 22 0 35 -9 28 -20 -7 -12 -21 -15 -31 -9
-11 6 -19 -2 -19 -17 0 -56 -56 -82 -63 -30 -4 25 -28 55 -53 66 -30 13 -43
32 -37 55 5 19 1 35 -9 35 -10 0 -18 -9 -18 -20 0 -11 -9 -20 -20 -20 -11 0
-20 14 -20 30 0 17 -9 30 -20 30 -28 0 -24 -63 7 -104 20 -26 32 -29 49 -12
17 17 28 8 44 -34 12 -31 40 -72 62 -91 29 -26 36 -49 27 -87 -16 -61 -49 -69
-49 -12 0 22 -17 57 -37 78 -21 20 -43 49 -48 65 -8 21 -17 19 -39 -11 -25
-32 -36 -34 -77 -12 -38 21 -49 21 -56 0 -9 -27 -63 86 -63 132 0 17 21 28 50
28 31 0 50 11 50 30 0 17 -9 30 -20 30 -11 0 -20 -10 -20 -22 0 -16 -9 -15
-30 2 -39 33 -38 73 2 88 22 8 29 27 21 56 -6 24 -3 54 8 67 13 16 10 32 -9
48 -30 24 -32 23 -157 -93 -19 -18 -35 -45 -35 -59 0 -15 -13 -21 -30 -14 -18
7 -30 0 -30 -18 0 -28 -61 -95 -87 -95 -26 0 -12 31 39 86 28 31 46 69 40 85
-16 43 -52 35 -52 -11 0 -22 -13 -40 -30 -40 -23 0 -27 13 -18 52 13 51 12 52
-35 21 -46 -30 -49 -29 -74 28 -15 32 -34 59 -44 59 -27 0 3 -128 34 -146 15
-9 27 -27 27 -42 0 -14 22 -46 50 -72 28 -26 50 -58 50 -71 0 -18 20 -20 69
-9 38 8 76 10 84 3 9 -7 4 2 -10 20 -19 26 -19 37 -1 48 14 9 35 1 48 -18 14
-18 34 -33 45 -33 33 0 49 -65 21 -83 -14 -9 -87 -17 -161 -17 -127 0 -173
-21 -105 -47 49 -19 38 -153 -18 -223 l-48 -60 -49 45 c-58 55 -75 57 -75 7 0
-28 -19 -43 -65 -53 -36 -7 -80 -26 -97 -42 -20 -17 -65 -26 -115 -23 -87 6
-97 14 -61 50 13 13 15 34 7 48 -39 62 -27 118 31 148 80 41 92 38 120 -30 29
-71 60 -78 61 -15 1 116 119 149 135 38 9 -58 44 -55 44 4 0 26 19 64 42 84
l41 38 -54 14 c-29 8 -68 8 -86 -1 -18 -8 -62 -30 -98 -47 -40 -21 -89 -29
-132 -22 -40 7 -74 2 -82 -11 -19 -31 -120 -27 -206 9 -41 17 -97 25 -127 19
-67 -15 -81 6 -83 121 -1 49 -9 89 -18 89 -9 0 -17 -31 -17 -68 0 -38 -5 -82
-12 -99 -6 -16 7 -48 30 -71 43 -43 20 -82 -25 -44 -15 12 -43 24 -65 28 -21
3 -58 17 -83 30 -24 14 -65 20 -90 14 -64 -15 -135 59 -135 140 0 30 -38 44
-42 15 -16 -147 -24 -159 -89 -124 -56 29 -99 -1 -79 -56 5 -14 -4 -25 -21
-25 -18 0 -29 -19 -29 -50 0 -27 -9 -50 -20 -50 -11 0 -20 10 -20 22 0 12 -15
17 -32 10 -23 -9 -29 -4 -21 17 8 20 1 25 -20 17 -27 -10 -29 0 -18 69 9 51 6
86 -8 94 -12 8 -16 23 -10 33 8 13 23 11 41 -3 22 -19 28 -18 29 4 2 83 109
152 162 104 22 -20 37 -24 37 -10 0 13 16 23 35 23 20 0 47 19 62 42 17 27 39
38 64 32 23 -6 39 0 39 15 0 26 62 91 87 91 21 0 -9 -104 -46 -160 -33 -51
-33 -140 0 -140 11 0 19 11 19 25 0 14 24 61 53 104 37 55 55 110 60 184 6
111 3 115 -87 108 -103 -8 -130 149 -56 329 69 167 54 196 -56 109 -29 -22
-118 -67 -197 -100 -80 -33 -152 -71 -160 -85 -9 -13 -25 -25 -36 -26 -12 -2
-30 -4 -41 -5 -11 -2 -20 -16 -20 -32 0 -16 -22 -62 -50 -102 -58 -87 -85 -57
-53 60 16 56 14 76 -5 83 -55 21 -82 163 -45 239 39 82 42 123 10 133 -41 14
3 93 79 140 53 33 65 47 40 52 -33 6 -200 -87 -213 -119 -8 -21 -43 -23 -43
-2 0 8 23 41 50 73 59 69 63 92 14 92 -21 0 -45 -23 -58 -55 l-22 -55 -2 72
c-2 73 69 118 185 118 20 0 33 16 33 40 0 33 10 37 60 27 77 -15 106 41 43 85
-73 51 87 182 233 190 19 1 9 9 -22 18 -37 11 -88 8 -147 -10 -88 -26 -91 -26
-80 13 8 33 3 39 -28 31 -22 -6 -39 -2 -39 8 0 10 9 18 20 18 11 0 20 13 20
30 0 47 93 96 155 82 30 -7 132 -15 225 -18 94 -4 190 -17 215 -31 30 -16 57
-18 79 -6 29 16 28 20 -9 31 -29 9 -38 25 -31 53 11 39 6 42 -78 47 -25 1 -55
22 -67 46 -21 44 -21 44 -70 -15 -61 -74 -81 -75 -66 -1 9 47 3 61 -31 71 -23
8 -42 22 -42 33 0 11 -20 1 -44 -21 -24 -23 -58 -41 -75 -41 -18 0 -23 7 -11
15 71 51 104 185 47 185 -11 0 -14 -9 -8 -19 30 -47 -12 -121 -61 -109 -39 10
-48 5 -48 -30 0 -58 -37 -53 -60 8 -29 75 -93 57 -106 -31 -6 -39 -21 -50 -76
-56 -115 -11 -169 -105 -74 -130 42 -11 43 -13 8 -51 -36 -40 -39 -242 -5
-297 7 -12 3 -25 -10 -29 -36 -12 -1 -56 44 -56 22 0 39 -9 39 -20 0 -11 -16
-20 -35 -20 -19 0 -53 -5 -76 -12 -39 -10 -41 -2 -43 226 -1 130 -8 251 -15
269 -8 19 -10 179 -6 356 7 265 4 321 -18 313 -18 -7 -27 5 -27 34 1 35 4 38
19 15 28 -44 42 -17 55 102 26 246 100 524 187 706 32 67 131 88 214 47 57
-29 84 -5 36 31 -26 19 -34 44 -27 90 8 59 5 63 -52 66 -55 2 -56 3 -12 12 28
5 57 21 65 35 22 38 86 15 117 -43 19 -37 37 -47 70 -38 27 6 48 1 54 -14 5
-14 14 -20 22 -13 21 20 -9 76 -48 88 -25 8 -38 32 -39 76 -5 220 -20 359 -40
383 -19 23 -27 73 -39 246 -1 15 -25 35 -53 46 -69 25 -57 83 18 93 85 12 112
-21 92 -110 -10 -44 -9 -82 2 -93 10 -10 19 -50 19 -88 0 -134 22 -46 30 120
4 92 8 171 9 175 7 56 81 -81 79 -146 -2 -45 -7 -66 -12 -47 -16 64 -36 36
-42 -60 -24 -392 -24 -434 -3 -400 22 37 25 46 48 190 8 47 23 90 33 96 10 6
18 39 18 73 0 72 63 276 85 276 26 0 17 -93 -15 -153 -65 -124 -24 -109 61 23
66 101 89 156 85 199 -4 38 8 75 34 103 22 23 61 68 87 99 35 42 50 50 63 30
19 -32 126 36 161 102 12 22 32 36 45 31 13 -5 60 11 104 36 78 42 216 81 263
73 13 -2 30 5 36 16 7 11 40 14 74 7 39 -7 67 -3 77 14 21 33 60 8 60 -40 0
-33 -157 -100 -236 -100 -42 0 -211 -110 -315 -205 -111 -101 -152 -114 -110
-37 12 23 16 42 8 42 -8 0 16 31 53 70 100 103 57 108 -70 8 -62 -48 -129 -98
-151 -110 -61 -34 -212 -261 -190 -284 7 -7 33 11 57 39 24 28 69 66 99 84 30
19 55 46 55 60 0 14 27 51 60 83 77 74 76 54 -4 -59 -35 -50 -56 -97 -48 -106
8 -8 24 1 34 20 21 36 141 101 171 91 10 -3 45 20 77 51 138 131 250 181 250
112 0 -32 11 -40 45 -36 25 3 56 -1 70 -10 16 -10 25 -4 25 15 0 33 21 50 75
62 19 4 62 16 95 26 33 9 94 16 135 13 212 -12 407 -34 426 -50 11 -9 56 -26
100 -36 145 -36 412 -135 579 -215 33 -15 87 -30 120 -32 94 -5 303 -173 282
-228 -6 -17 -1 -28 13 -26 56 7 79 -7 199 -117 199 -181 312 -306 348 -383 19
-38 62 -116 97 -171 35 -56 89 -153 121 -216 37 -76 64 -109 77 -96 13 13 12
28 -1 45 -30 40 -49 100 -26 86 11 -7 20 -1 20 14 -1 39 -36 87 -52 70 -14
-13 -160 203 -234 347 -43 85 -100 146 -320 339 -136 120 -168 159 -160 194 8
36 -6 51 -81 85 -50 22 -99 55 -108 71 -9 16 -44 33 -79 37 -34 4 -87 25 -119
48 -81 57 -207 126 -207 113 0 -15 43 -53 90 -79 98 -56 39 -62 -68 -7 -67 34
-117 70 -111 79 13 22 -56 59 -109 59 -22 0 -52 18 -68 40 -21 31 -42 37 -88
28 -52 -10 -122 75 -82 100 3 2 32 20 64 40 44 28 81 34 155 25 160 -19 190
-55 35 -41 -84 8 -148 4 -175 -11 -68 -36 -53 -68 27 -55 53 9 70 4 70 -17 0
-20 22 -29 69 -29 38 0 74 -8 80 -18 6 -10 35 -24 66 -31 75 -18 260 -106 275
-131 7 -11 39 -20 72 -20 34 0 79 -10 100 -21 73 -39 89 -6 19 37 -37 23 -76
37 -85 32 -9 -6 -22 4 -29 21 -6 18 -45 47 -84 65 -48 21 -62 35 -41 40 55 13
244 -95 343 -197 110 -113 114 -122 42 -104 -35 8 -49 6 -40 -9 8 -11 40 -27
72 -34 72 -16 221 -121 221 -156 0 -33 108 -134 201 -190 78 -47 157 -124 126
-124 -11 0 -37 13 -58 29 -22 17 -52 30 -67 30 -16 1 -89 60 -163 131 -119
115 -207 171 -167 108 29 -48 252 -247 324 -290 42 -25 87 -66 101 -92 13 -25
52 -62 86 -81 34 -20 57 -47 51 -62 -8 -21 92 -170 206 -307 11 -13 20 -35 20
-47 0 -32 63 -164 94 -195 40 -41 31 -4 -24 104 -53 105 -60 132 -33 132 32 0
127 -216 113 -259 -8 -26 -4 -41 12 -41 14 0 19 -6 12 -13 -7 -6 1 -37 17 -69
16 -31 29 -86 28 -122 -1 -61 -5 -57 -62 64 -34 72 -66 118 -71 104 -5 -14 1
-38 13 -53 13 -15 15 -32 5 -38 -26 -17 -13 -173 21 -253 77 -179 86 -250 25
-200 -17 14 -27 30 -21 35 5 6 0 29 -13 52 -12 23 -21 66 -20 97 1 31 -7 56
-17 56 -11 0 -19 14 -19 31 0 64 -103 252 -132 241 -16 -6 -28 2 -28 19 0 16
-8 29 -18 29 -9 0 -28 27 -42 60 -14 33 -34 54 -45 47 -13 -8 -15 -3 -6 12 9
14 -1 47 -23 78 -21 29 -54 87 -74 130 -19 42 -57 108 -84 147 -26 40 -48 87
-48 105 0 19 -22 55 -50 81 -27 26 -50 54 -50 62 0 28 -118 133 -164 146 -25
7 -64 41 -86 76 -48 75 -84 92 -94 42 -6 -29 -14 -25 -39 23 -18 32 -49 60
-69 62 -21 3 -87 25 -148 50 -136 55 -159 64 -315 120 -115 40 -177 79 -127
79 11 0 25 -9 32 -20 7 -11 32 -20 57 -20 24 0 62 -12 84 -27 21 -16 80 -34
129 -42 l90 -14 -140 71 c-77 39 -149 71 -161 72 -11 0 -55 18 -97 39 -176 90
-346 94 -452 11 -23 -18 -41 -18 -78 1 l-48 25 48 8 c26 4 46 18 43 31 -2 13
29 29 70 36 117 19 122 26 22 27 -65 2 -96 -7 -104 -28 -7 -16 -27 -30 -45
-30 -28 0 -29 5 -7 32 23 27 19 30 -41 25 -74 -8 -110 -57 -40 -57 23 0 37 -9
30 -20 -8 -13 -25 -13 -50 0 -21 11 -56 20 -79 20 -22 0 -41 9 -41 20 0 11 14
20 30 20 17 0 30 9 30 20 0 11 -26 20 -58 20 -32 0 -73 5 -90 12 -21 8 -32 1
-32 -20 0 -38 -52 -40 -117 -4 -46 25 -46 27 -8 37 22 5 52 3 66 -6 14 -9 37
-4 51 11 20 19 82 23 242 17 152 -6 207 -3 186 12 -39 27 -514 28 -530 1 -7
-11 -39 -20 -71 -20 -33 0 -59 -8 -59 -17 0 -23 -99 -66 -121 -52 -10 6 -81
-21 -159 -59 -135 -68 -194 -68 -90 0 28 18 50 40 50 50 0 31 -95 -25 -119
-70 -20 -38 -142 -121 -179 -123 -55 -2 -127 -119 -182 -295 -34 -110 -39 -86
-19 95 10 87 14 163 9 168 -13 13 -50 -92 -50 -143 -1 -97 -58 -279 -99 -317
-51 -48 -80 -32 -45 24 13 21 24 52 24 68 0 16 14 71 31 121 28 82 28 94 0
122 -28 28 -31 27 -31 -12 0 -23 -9 -60 -20 -81 -12 -21 -23 -79 -25 -128 -3
-68 -13 -94 -39 -102 -25 -8 -36 -32 -36 -78 0 -57 -6 -66 -40 -57 -22 6 -40
1 -40 -12 0 -12 9 -22 20 -22 11 0 20 -22 20 -50 0 -54 -47 -69 -74 -23 -9 14
-34 33 -56 41 -34 13 -33 8 9 -37 26 -27 66 -56 89 -64 23 -7 54 -29 68 -50
43 -61 98 -81 144 -53 49 31 51 68 5 93 -30 18 -28 21 18 33 56 14 87 62 107
164 7 35 25 74 41 87 16 13 29 32 29 43 0 10 29 61 64 112 36 52 69 129 75
172 6 43 23 83 37 87 19 7 22 -6 12 -46 -10 -41 -7 -52 14 -45 15 5 28 36 29
68 0 44 11 59 45 64 24 4 44 14 44 24 0 9 27 23 60 30 33 7 60 20 60 29 0 9
27 27 60 41 33 14 60 34 60 45 0 10 15 14 33 7 17 -7 42 -5 55 5 74 60 555 14
641 -60 10 -10 39 -17 64 -17 24 0 50 -9 57 -20 7 -12 22 -15 33 -8 11 6 38
-5 60 -25 32 -29 68 -36 159 -33 74 3 118 -3 118 -17 0 -12 -13 -16 -30 -10
-54 21 -32 -39 25 -68 30 -15 105 -67 166 -114 61 -47 127 -85 146 -85 21 0
30 -9 22 -22 -9 -15 -1 -18 23 -11 45 13 133 -46 92 -61 -18 -7 -13 -21 18
-48 64 -56 85 -48 27 11 -27 26 -27 31 -2 31 54 0 513 -451 513 -504 0 -8 12
-10 28 -4 15 6 46 -14 70 -44 23 -30 48 -48 55 -42 69 70 -711 731 -913 775
-37 8 -49 22 -45 55 4 35 -6 44 -45 44 -28 0 -50 9 -50 20 0 33 71 23 209 -30
150 -57 387 -146 430 -162 26 -9 26 -13 0 -31 -22 -15 -23 -22 -4 -30 14 -6
20 -19 14 -29 -6 -10 5 -24 25 -31 91 -31 207 -93 255 -138 29 -27 80 -63 113
-80 62 -32 116 -118 90 -144 -8 -8 -41 1 -73 19 -100 58 -56 -9 171 -259 66
-72 109 -126 96 -118 -67 39 -36 -43 59 -152 59 -69 129 -161 155 -205 25 -44
65 -100 87 -125 47 -53 34 -78 -25 -46 -36 19 -128 164 -131 204 -4 52 -151
205 -151 157 0 -11 7 -20 16 -20 30 0 203 -373 233 -502 75 -323 77 -345 47
-480 -29 -124 -30 -126 -52 -73 -13 30 -30 54 -39 53 -42 -7 -62 7 -73 52 -7
27 -21 50 -32 50 -10 0 -13 16 -6 35 9 28 7 30 -15 11 -20 -20 -21 -36 -2 -76
30 -67 29 -90 -3 -90 -15 0 -36 25 -48 55 -21 54 -22 54 -24 7 -2 -55 -82 -5
-82 51 0 15 -13 27 -30 27 -35 0 -36 -2 -10 -69 30 -81 -62 -34 -116 59 -20
36 -23 36 -23 4 -1 -20 17 -55 39 -79 45 -48 53 -127 15 -140 -19 -7 -19 -16
2 -42 22 -26 23 -39 3 -63 -34 -42 -75 -37 -100 10 -26 49 -64 53 -58 5 6 -43
-41 -145 -67 -145 -10 0 -11 20 -3 45 36 111 15 245 -48 315 -66 73 -78 92
-88 147 -15 79 45 62 86 -25 17 -36 46 -75 65 -85 51 -29 43 46 -12 107 -25
27 -65 76 -89 108 l-44 58 -2 -50 c-1 -47 -4 -45 -38 20 -19 39 -56 108 -80
154 l-45 84 44 59 44 59 -55 72 c-30 40 -66 72 -81 72 -14 0 -57 36 -94 80
-79 92 -136 110 -80 26 48 -74 139 -166 164 -166 12 0 39 -18 61 -40 46 -46
18 -151 -35 -131 -16 6 -35 11 -44 11 -9 0 -27 27 -41 60 -14 33 -33 60 -42
60 -10 0 -18 17 -18 38 0 20 -15 49 -33 65 -30 24 -33 22 -22 -20 11 -42 9
-44 -21 -18 -73 63 -96 66 -59 10 43 -66 45 -88 5 -55 -42 35 -37 6 13 -75 28
-45 45 -106 46 -168 2 -74 12 -104 44 -126 23 -16 47 -57 54 -92 7 -34 21 -56
31 -50 12 7 11 36 -1 76 -11 36 -21 79 -21 95 -1 17 -14 45 -30 64 -31 35 -19
116 17 116 10 0 14 -9 7 -20 -6 -10 -2 -38 11 -62 13 -24 25 -63 28 -87 3 -25
22 -63 43 -85 21 -21 51 -58 67 -82 31 -46 66 -41 48 7 -6 16 -2 29 9 29 29 0
50 -68 24 -77 -27 -9 24 -94 91 -153 64 -56 124 -370 71 -370 -19 0 -52 132
-44 178 3 17 -6 23 -24 16 -16 -6 -48 2 -72 19 -23 16 -42 22 -42 12 0 -39 52
-125 75 -125 14 0 25 -14 25 -31 0 -23 -12 -28 -40 -19 -46 15 -49 5 -15 -50
19 -31 19 -49 2 -77 -22 -34 9 -194 63 -328 8 -19 7 -35 -3 -35 -9 0 -17 -50
-16 -110 0 -87 -6 -109 -28 -100 -20 8 -25 -1 -17 -30 6 -22 2 -40 -8 -40 -27
0 -22 -128 6 -156 19 -19 14 -24 -20 -24 -50 0 -52 -7 -23 -61 23 -44 13 -48
-41 -19 -25 13 -42 13 -50 0 -7 -11 -2 -20 11 -20 13 0 19 -12 13 -28 -6 -15
0 -38 13 -51 18 -18 15 -30 -12 -50 -19 -14 -35 -31 -35 -38 0 -24 57 -13 66
12 5 14 15 19 23 11 24 -21 -8 -56 -50 -56 -30 0 -39 -14 -39 -59 0 -41 -12
-62 -40 -71 -39 -12 -39 -13 0 -55 43 -45 53 -95 20 -95 -11 0 -20 -31 -20
-70 0 -74 -26 -92 -56 -37 -11 19 -24 24 -31 12 -16 -26 25 -145 50 -145 11 0
14 9 7 20 -16 26 2 25 51 -1 35 -18 37 -15 19 30 -13 36 -11 57 9 77 15 16 23
49 17 80 -9 45 -3 54 32 54 48 0 59 68 15 94 -25 15 -65 126 -44 126 5 0 34
-23 64 -51 30 -28 68 -45 84 -39 39 15 67 -31 39 -65 -12 -14 -15 -32 -8 -40
8 -8 22 -2 31 13 9 16 31 22 49 16 22 -9 32 -1 32 25 0 21 8 44 18 50 10 6 15
45 10 86 -5 41 -8 89 -7 105 1 17 1 220 -2 452 -2 249 4 428 16 435 10 6 20
44 21 83 5 128 63 159 65 35 1 -65 4 -69 20 -30 10 25 12 59 5 77 -6 18 -1 39
13 47 19 12 20 26 3 57 -30 56 10 81 51 31 21 -27 32 -30 40 -12 6 14 19 25
29 25 11 0 46 31 79 68 298 339 566 -50 433 -628 -17 -71 -45 -195 -62 -275
-35 -161 -86 -276 -149 -332 -23 -21 -61 -75 -84 -120 -60 -117 -83 -138 -196
-182 -113 -44 -122 -69 -123 -316 0 -107 6 -135 30 -135 34 0 41 -51 10 -70
-31 -19 -23 -90 10 -90 17 0 30 7 30 15 0 8 27 30 59 48 l59 34 6 -74 c7 -87
43 -98 53 -16 4 37 20 61 46 68 28 7 35 19 24 43 -18 36 -18 116 -3 429 13
252 68 365 185 377 50 5 63 18 80 79 12 41 28 80 36 89 8 8 15 35 15 60 0 25
9 51 20 58 11 7 20 55 21 106 0 100 33 164 84 164 53 0 132 114 146 210 8 50
22 95 31 101 10 6 18 67 19 135 1 82 14 148 39 194 21 39 49 90 62 116 38 69
-11 111 -58 50 -25 -33 -42 -40 -64 -26 -24 15 -25 23 -5 43 37 37 31 154 -15
289 -21 65 -39 147 -40 183 0 36 -8 81 -18 100 -34 67 -90 264 -77 276 65 66
191 -256 225 -581 17 -156 30 -210 52 -210 25 0 23 295 -2 310 -11 7 -20 80
-20 162 0 109 -11 173 -40 233 -22 45 -40 108 -40 139 0 31 -23 93 -51 137
-27 44 -56 109 -63 145 -7 35 -42 101 -79 146 -37 45 -67 93 -67 105 0 35
-242 323 -270 323 -39 0 -134 205 -104 225 24 16 5 36 -145 152 -34 25 -61 55
-61 65 0 10 -63 78 -140 151 -77 72 -140 146 -140 163 0 25 -5 27 -24 8 -13
-13 -33 -24 -45 -24 -37 1 -176 134 -154 148 11 7 26 4 33 -8 7 -11 33 -20 59
-20 25 0 57 -13 71 -30 28 -34 60 -40 60 -11 0 11 -65 51 -145 89 -80 39 -131
71 -115 71 126 4 508 -269 656 -469 51 -70 101 -117 118 -114 17 4 47 -9 68
-28 110 -100 19 86 -113 228 -153 167 -271 245 -559 373 -93 41 -326 111 -371
111 -22 0 -55 8 -74 17 -298 151 -505 188 -947 171 -343 -13 -355 -12 -413 31
-86 64 -464 78 -517 19z m732 -140 c0 -14 -21 -19 -53 -13 -29 6 -76 4 -105
-4 -60 -17 -108 -6 -91 21 17 27 249 23 249 -4z m-1262 -90 c73 -15 77 -33 22
-103 -22 -28 -40 -76 -40 -107 0 -64 -36 -96 -64 -56 -13 20 -15 10 -7 -32 8
-42 6 -51 -7 -31 -21 32 -91 -8 -71 -40 14 -24 -68 -64 -103 -51 -37 14 -36
52 2 52 40 0 38 33 -2 48 -25 10 -27 19 -10 39 12 15 17 53 11 85 -9 45 -2 64
32 84 55 34 64 23 64 -76 0 -45 8 -86 17 -91 20 -12 58 56 58 103 0 19 15 51
33 72 18 20 27 43 19 51 -9 8 -27 -1 -41 -20 -35 -48 -51 -44 -51 12 0 75 20
84 138 61z m-634 -448 c11 0 15 -21 8 -48 -6 -26 2 -81 19 -122 23 -55 25 -80
9 -100 -17 -20 -10 -66 26 -183 27 -85 45 -167 39 -182 -17 -45 -54 -15 -69
57 -23 111 -86 326 -102 352 -9 14 -1 47 17 75 30 45 30 55 1 112 -28 57 -28
62 0 51 17 -7 41 -12 52 -12z m-197 -90 c7 -16 37 -31 67 -32 34 -2 42 -6 21
-12 -47 -12 -44 -71 5 -101 24 -16 40 -47 40 -80 0 -30 15 -120 33 -199 34
-145 12 -259 -35 -182 -9 14 -7 30 3 37 10 6 -2 51 -29 100 -26 49 -72 137
-102 196 -31 60 -61 98 -68 86 -8 -12 -13 14 -13 57 1 44 8 80 16 80 8 0 15
18 15 40 0 47 31 53 47 10z m5 -377 c17 -32 34 -89 38 -127 3 -38 20 -84 37
-102 36 -40 65 -144 40 -144 -9 0 -29 28 -44 62 -15 33 -42 67 -60 73 -45 17
-123 108 -123 144 0 19 -7 22 -20 9 -20 -20 128 -328 158 -328 9 0 38 -19 64
-42 l48 -42 6 52 c8 61 35 69 49 14 14 -54 -21 -82 -86 -69 -43 9 -69 -2 -119
-50 -113 -108 -318 -187 -240 -93 17 20 13 32 -14 47 -39 22 -31 27 69 49 46
10 62 -13 25 -36 -12 -7 -15 -21 -9 -31 16 -26 149 84 149 122 0 17 -32 93
-72 170 -67 131 -87 337 -36 387 15 16 67 -67 67 -107 1 -27 7 -33 22 -18 14
14 14 37 0 75 -47 122 -18 113 51 -15z m890 -39 c-37 -37 -48 2 -20 70 l28 66
7 -57 c3 -32 -3 -67 -15 -79z m-1010 -712 c-18 -19 -32 -54 -32 -76 0 -23 -15
-53 -33 -69 -31 -25 -32 -19 -19 63 8 58 30 102 58 124 53 41 72 9 26 -42z
m4888 -153 c32 -84 22 -103 -20 -39 -45 67 -50 90 -20 90 12 0 30 -23 40 -51z
m-1458 -333 c12 -22 17 -44 11 -49 -5 -6 -20 8 -32 31 -12 23 -36 42 -52 42
-16 0 -29 8 -29 18 0 32 80 -1 102 -42z m1196 -72 c29 -31 55 -69 58 -84 10
-42 71 -80 93 -59 30 30 56 22 43 -14 -7 -18 0 -42 18 -55 23 -16 26 -37 13
-82 -9 -33 -14 -98 -12 -145 3 -47 -3 -85 -13 -85 -10 0 -18 -32 -18 -72 0
-48 -8 -69 -25 -63 -14 5 -23 31 -21 57 14 162 4 367 -16 335 -13 -20 -17 -20
-18 -2 0 14 -32 61 -72 104 -39 44 -65 89 -58 101 7 12 -1 44 -19 71 -43 66
-17 62 47 -7z m-1018 -139 c0 -16 19 -44 43 -64 25 -20 37 -45 29 -58 -21 -34
-44 -13 -94 87 -25 50 -53 90 -63 90 -9 0 -11 10 -4 21 16 27 89 -35 89 -76z
m1290 -445 c7 -11 -1 -72 -17 -135 -16 -63 -25 -141 -19 -172 6 -31 -5 -107
-24 -170 -54 -174 -67 -203 -92 -203 -13 0 -17 14 -8 35 8 19 19 76 25 125 6
50 18 100 27 111 9 12 9 70 0 130 -15 95 -13 112 20 135 25 17 38 50 38 95 0
67 24 90 50 49z m-4743 -350 c-6 -16 -1 -30 11 -30 50 0 71 -97 30 -142 -21
-23 -36 -48 -33 -55 3 -7 -11 -13 -30 -13 -33 0 -43 204 -12 255 17 28 46 15
34 -15z m3633 -1130 c0 -139 -26 -169 -55 -64 -23 80 -22 140 2 180 31 49 53
0 53 -116z m-3287 -173 c-12 -13 -93 38 -93 58 0 9 20 24 45 33 42 16 82 -58
48 -91z m-23 -30 c37 -4 58 -17 55 -33 -4 -15 3 -22 14 -15 10 7 13 28 6 47
-11 30 -8 31 21 7 29 -24 39 -24 68 0 23 18 29 19 19 2 -9 -14 -6 -25 6 -25
11 0 38 -17 60 -39 45 -45 14 -67 -49 -36 -22 11 -34 14 -27 6 14 -14 -51 -91
-77 -91 -8 0 -3 11 10 24 48 48 28 80 -41 65 -110 -23 -207 -69 -180 -86 17
-11 13 -25 -18 -51 -36 -31 -46 -32 -70 -7 -33 32 -16 95 25 95 15 0 28 9 28
20 0 11 -9 20 -19 20 -25 0 -5 59 35 105 19 22 38 28 52 17 12 -10 49 -22 82
-25z m1826 -200 c-46 -29 -53 -18 -30 43 22 58 24 59 39 17 11 -29 8 -49 -9
-60z m-2148 -176 c38 -121 97 -275 131 -342 34 -68 61 -133 61 -144 0 -12 13
-36 28 -53 46 -52 115 -186 102 -199 -48 -48 -273 405 -357 717 -80 299 -58
312 35 21z m4024 167 c-7 -17 -12 -40 -12 -51 0 -11 -9 -14 -20 -7 -33 20 -23
90 12 90 21 0 28 -11 20 -32z m-15 -208 c-15 -33 -34 -60 -42 -60 -23 0 -18
28 19 101 40 81 61 44 23 -41z m-1969 -112 c27 -70 -39 -188 -89 -158 -48 30
-14 190 41 190 20 0 41 -14 48 -32z m-1148 -98 c14 -16 40 -30 58 -30 18 0 46
-29 61 -65 15 -36 32 -72 36 -80 5 -8 -6 -15 -23 -15 -18 0 -32 9 -32 20 0 12
-21 16 -46 9 -38 -9 -52 1 -80 61 -53 111 -37 175 26 100z m-329 -22 c131 -57
226 -258 128 -270 -10 -2 -28 -4 -40 -5 -11 -2 -27 -14 -36 -28 -12 -19 -28
-12 -63 25 -59 63 -84 64 -68 1 16 -66 -1 -88 -62 -76 -66 13 -72 122 -8 161
24 16 37 39 30 56 -7 17 1 56 17 87 16 31 24 61 18 67 -14 15 33 5 84 -18z
m691 -28 c73 -102 60 -168 -37 -181 -109 -15 -129 -1 -139 97 -13 133 101 188
176 84z m1898 -358 c0 -9 -15 -52 -34 -95 -34 -75 -35 -76 -42 -23 -7 58 25
136 57 136 10 0 19 -8 19 -18z m-680 -502 c0 -11 13 -20 29 -20 57 0 74 -71
27 -112 -40 -35 -42 -35 -30 -2 9 25 -6 53 -51 94 -61 55 -62 59 -20 59 25 1
45 -8 45 -19z m-1740 -132 c0 -32 -18 -35 -58 -10 -15 10 -21 27 -14 39 18 28
72 6 72 -29z m95 -63 c5 -15 -9 -25 -32 -25 -44 0 -70 26 -48 48 20 20 71 6
80 -23z m151 -25 c-6 -22 1 -54 15 -72 22 -26 21 -34 -2 -49 -20 -13 -39 -5
-63 27 -41 53 -81 27 -63 -42 10 -39 21 -44 70 -33 47 10 55 7 45 -20 -8 -21
-4 -31 13 -27 17 4 27 -22 30 -79 2 -56 -5 -85 -21 -85 -15 0 -21 18 -15 48 7
36 -2 51 -35 62 -50 16 -81 -5 -43 -28 30 -19 23 -117 -7 -102 -11 6 -19 28
-18 50 1 22 -12 50 -29 63 -27 20 -28 27 -3 57 26 31 23 39 -26 78 -64 52 -68
83 -14 112 22 12 40 15 40 7 0 -8 18 5 41 29 52 56 99 58 85 4z"/>
<path d="M2508 6711 c-50 -29 -92 -41 -108 -31 -45 28 -184 -66 -166 -112 7
-19 1 -25 -20 -17 -26 10 -172 -94 -191 -136 -18 -41 -46 -9 -35 40 10 41 8
47 -7 25 -11 -16 -21 -44 -21 -61 0 -16 -18 -46 -40 -64 -22 -19 -40 -52 -40
-74 0 -72 -44 -142 -81 -131 -37 12 -79 -74 -79 -162 0 -25 -9 -51 -21 -59
-11 -7 -18 -27 -15 -46 3 -18 -2 -45 -11 -59 -13 -21 12 -124 39 -161 2 -3 23
12 46 35 23 23 56 42 72 42 35 0 43 129 10 150 -30 19 -24 90 8 90 15 0 26 16
25 35 -2 24 9 33 35 28 26 -4 34 3 26 24 -6 16 0 34 14 40 15 5 31 35 38 67
11 54 191 258 319 362 91 73 275 127 393 116 121 -12 135 17 23 48 -44 11 -85
30 -91 41 -17 27 -29 24 -122 -30z m-556 -520 c-15 -58 -52 -69 -52 -15 0 37
40 90 56 75 5 -5 3 -32 -4 -60z m-150 -197 c-12 -12 -22 -43 -22 -68 0 -25
-10 -46 -22 -46 -23 0 -9 92 28 180 l21 50 8 -47 c5 -26 -1 -57 -13 -69z"/>
<path d="M2920 6674 c17 -18 80 -37 140 -44 98 -11 107 -9 80 18 -44 43 -262
69 -220 26z"/>
<path d="M2115 6617 c-126 -80 -122 -115 5 -43 55 31 100 67 100 81 0 31 8 34
-105 -38z"/>
<path d="M2610 6585 c-156 -38 -334 -145 -243 -145 8 0 130 56 178 81 44 24
55 24 55 -1 0 -11 -9 -20 -21 -20 -11 0 -45 -22 -75 -50 l-54 -50 74 0 c46 0
94 17 129 46 65 52 126 82 232 114 41 13 75 27 75 32 0 11 -300 6 -350 -7z"/>
<path d="M2990 6501 c-88 -6 -178 -22 -201 -35 -65 -37 -199 -166 -173 -166
43 0 25 -52 -26 -80 -27 -15 -50 -39 -50 -53 0 -15 -13 -27 -28 -27 -25 0
-152 -127 -152 -151 0 -19 96 2 127 28 17 15 41 21 52 14 12 -8 16 0 8 19 -9
23 -19 26 -34 11 -11 -11 -30 -21 -40 -21 -10 0 7 24 38 53 l57 53 16 -58 c17
-62 -45 -142 -88 -115 -11 7 -26 4 -33 -6 -26 -37 -244 -147 -292 -147 -49 0
-85 -29 -56 -47 8 -5 81 12 161 37 80 25 204 56 275 69 157 27 250 75 285 148
33 68 108 118 151 101 48 -18 41 -46 -17 -68 -57 -22 -67 -60 -16 -60 29 0 29
-4 -5 -31 -37 -29 -34 -30 41 -20 44 6 97 12 119 12 41 1 151 59 151 81 0 27
174 77 260 74 50 -1 126 4 170 12 l80 15 -55 -50 c-60 -56 -230 -94 -253 -57
-9 15 -39 16 -90 4 -93 -20 -142 -60 -76 -60 24 0 44 -9 44 -20 0 -11 25 -21
55 -21 48 -2 50 -4 15 -18 -22 -9 -48 -11 -58 -5 -10 5 -12 0 -4 -13 22 -36
147 -28 169 10 11 21 31 28 52 20 18 -7 29 -20 23 -29 -5 -9 22 -33 60 -54 38
-20 68 -51 66 -69 -6 -68 1 -86 27 -65 17 14 33 12 51 -8 21 -23 20 -28 -5
-28 -37 0 -41 -42 -7 -76 35 -35 56 -29 56 15 0 61 30 64 92 10 100 -87 108
-92 108 -71 0 11 -20 39 -44 61 -23 22 -38 45 -33 51 6 5 53 -35 105 -90 124
-131 158 -129 53 3 -111 140 -81 153 41 17 54 -60 112 -107 128 -104 17 3 30
-4 30 -15 0 -12 14 -21 30 -21 17 0 30 -10 30 -22 0 -12 12 -17 28 -12 19 8
24 0 18 -26 -6 -21 -25 -42 -43 -47 -24 -6 -21 -9 10 -11 23 -1 53 -15 67 -32
14 -16 44 -30 67 -30 50 0 100 -85 68 -117 -11 -11 -13 -30 -5 -43 11 -18 20
-18 34 3 13 19 15 14 7 -16 -10 -34 2 -52 56 -85 72 -44 110 -102 67 -102 -13
1 -59 32 -102 71 -43 39 -81 67 -85 62 -13 -13 125 -153 151 -153 13 0 18 -10
11 -22 -8 -12 -4 -41 7 -65 11 -24 26 -60 32 -80 7 -20 30 -41 52 -47 62 -16
47 -39 -25 -40 -64 -1 -155 59 -155 102 -1 33 -152 194 -167 179 -24 -24 -13
-67 16 -67 16 0 73 -56 125 -125 73 -94 110 -126 153 -131 77 -8 141 -70 127
-123 -12 -46 10 -54 42 -16 29 35 14 167 -26 228 -18 28 -28 63 -22 78 6 16
-16 87 -48 159 -33 72 -53 145 -46 164 9 22 5 28 -11 18 -15 -9 -23 2 -23 32
0 54 -153 303 -177 288 -9 -6 -70 62 -135 151 -191 263 -192 263 -290 270 -48
4 -137 17 -198 30 -60 12 -144 20 -185 19 -55 -2 -75 5 -75 28 0 18 18 30 46
30 25 0 66 14 91 32 37 26 65 28 153 13 74 -13 111 -12 116 2 12 37 263 -182
263 -230 1 -24 12 -47 26 -52 14 -5 25 8 25 31 0 54 -262 329 -322 338 -26 4
-119 55 -207 114 -183 121 -316 192 -360 192 -16 0 -78 21 -136 47 -134 59
-206 69 -405 54z m287 -69 c29 -16 71 -35 93 -43 33 -12 25 -18 -44 -37 -46
-12 -90 -29 -98 -37 -8 -8 -35 -15 -60 -15 -25 0 -51 -9 -58 -20 -20 -32 -136
-54 -197 -37 -58 16 -58 15 -20 -26 36 -42 36 -42 -6 -29 -28 9 -67 -1 -110
-27 -110 -67 -132 -48 -47 39 54 55 68 80 46 80 -18 0 -37 -11 -42 -25 -7 -17
-19 -13 -41 15 -28 37 -27 43 8 79 49 50 77 24 29 -29 -60 -66 5 -45 69 22 48
50 71 60 115 51 31 -6 45 -7 31 -1 -14 6 -25 19 -25 28 0 42 283 51 357 12z
m341 -105 c20 -17 -18 -26 -143 -36 -109 -8 -131 -5 -122 18 15 42 222 56 265
18z m-298 -45 c0 -10 -25 -27 -55 -38 -30 -12 -81 -44 -113 -72 -49 -44 -146
-79 -106 -39 8 7 4 25 -9 40 -18 22 -11 25 38 15 43 -9 62 -3 71 20 18 46 174
112 174 74z m355 -35 c79 -21 49 -41 -81 -53 -69 -6 -166 -25 -215 -41 -140
-46 -219 -59 -219 -35 0 12 23 27 50 34 28 7 50 21 50 31 0 11 7 15 16 9 9 -5
41 3 71 18 29 15 96 31 148 35 52 4 104 9 115 11 11 2 40 -2 65 -9z m311 -132
c46 -25 88 -47 92 -50 5 -3 3 -10 -3 -17 -13 -13 -83 21 -153 75 -64 50 -38
47 64 -8z m-1207 -100 c-5 -3 -39 -26 -76 -52 -89 -63 -102 -41 -23 37 46 45
71 57 86 42 12 -12 17 -24 13 -27z m1050 16 c-22 -17 -65 -30 -98 -30 -56 -1
-57 0 -20 28 22 17 65 30 98 30 56 1 57 0 20 -28z m299 -263 c18 -7 27 -20 21
-30 -18 -28 -117 -21 -160 11 -42 32 67 47 139 19z m152 -181 c0 -26 -9 -47
-20 -47 -11 0 -20 13 -20 29 0 15 -14 42 -31 59 -17 18 -26 41 -18 53 20 33
89 -39 89 -94z"/>
<path d="M3040 6347 c-141 -66 -98 -83 64 -27 175 60 202 79 116 78 -38 0
-119 -23 -180 -51z"/>
<path d="M2313 6390 c-7 -17 -35 -39 -63 -50 -29 -11 -67 -47 -86 -80 -19 -33
-50 -60 -68 -60 -33 0 -97 -95 -109 -160 -10 -55 15 -106 39 -82 12 12 44 22
71 22 84 0 185 142 118 166 -35 12 37 107 147 192 48 38 73 63 54 56 -19 -7
-40 -4 -47 7 -17 28 -43 23 -56 -11z m-161 -362 c-10 -25 -19 -29 -35 -13 -12
12 -16 38 -9 57 10 25 19 29 35 13 12 -12 16 -38 9 -57z"/>
<path d="M2387 6310 c-6 -16 -21 -30 -32 -30 -35 0 -74 -67 -74 -128 -1 -57 0
-57 62 30 35 48 75 95 90 104 15 9 27 25 27 35 0 31 -60 22 -73 -11z"/>
<path d="M2450 6213 c-107 -104 -115 -130 -22 -69 38 25 65 51 61 58 -4 7 14
22 42 35 27 12 49 31 49 43 0 40 -42 18 -130 -67z"/>
<path d="M1922 5872 c52 -54 78 -50 78 9 0 30 -14 39 -62 39 l-62 0 46 -48z"/>
<path d="M2880 5868 l-50 -30 68 11 c37 6 75 11 85 11 9 0 17 9 17 20 0 29
-63 23 -120 -12z"/>
<path d="M1309 5799 c-18 -29 1 -45 64 -51 29 -3 61 -18 69 -32 13 -20 22 -20
40 -2 18 18 12 27 -28 37 -29 7 -63 26 -76 41 -27 33 -51 36 -69 7z"/>
<path d="M1918 5741 c-27 -30 -28 -40 -5 -72 24 -33 27 -33 27 -3 0 19 7 34
16 34 8 0 17 18 19 40 3 48 -14 49 -57 1z"/>
<path d="M4560 5727 c0 -25 215 -335 283 -407 60 -64 137 -215 137 -268 0 -24
-24 9 -57 78 -51 106 -160 256 -298 410 -25 27 -45 56 -45 65 0 8 -9 15 -20
15 -36 0 -21 -30 50 -106 39 -41 70 -83 70 -94 0 -11 8 -20 17 -20 9 0 78
-115 153 -255 74 -140 152 -278 172 -307 44 -63 118 -247 118 -294 -1 -20 -14
-7 -33 31 -18 36 -40 65 -49 65 -10 0 -19 16 -20 35 0 19 -5 25 -10 14 -11
-26 43 -161 72 -179 11 -7 20 -38 20 -70 0 -89 35 -89 50 0 31 181 -102 619
-251 827 -38 54 -78 112 -89 131 -33 55 -117 169 -150 203 -16 18 -50 58 -75
90 -25 32 -45 48 -45 36z"/>
<path d="M3350 5700 c-7 -11 -1 -20 13 -20 13 0 43 -17 66 -39 22 -21 68 -44
101 -51 54 -11 56 -10 20 12 -22 13 -61 45 -88 71 -50 50 -92 60 -112 27z"/>
<path d="M1550 5680 c-16 -27 -1 -46 42 -52 18 -3 28 8 24 27 -8 40 -48 55
-66 25z"/>
<path d="M3050 5647 c22 -5 65 -19 95 -30 30 -12 70 -15 90 -6 43 19 -45 44
-155 44 -38 0 -52 -4 -30 -8z"/>
<path d="M3847 5568 c-9 -22 1 -46 30 -69 58 -48 54 -63 -12 -46 -52 13 -53
12 -19 -22 20 -20 52 -31 74 -25 21 5 38 4 37 -3 -5 -40 7 -63 33 -63 36 0 40
53 5 67 -15 6 -11 10 10 11 19 1 35 -6 35 -16 0 -10 14 -23 30 -29 83 -32 -42
131 -148 193 -59 34 -63 34 -75 2z"/>
<path d="M1847 5537 c-18 -20 -25 -38 -15 -39 10 -1 -4 -8 -32 -16 -35 -10
-52 -30 -56 -69 -6 -45 -14 -53 -48 -42 -27 9 -36 6 -27 -9 7 -12 3 -22 -10
-22 -17 0 -17 -9 2 -31 26 -31 242 -33 273 -2 24 24 -40 73 -97 73 -52 0 -56
4 -37 40 18 33 29 37 63 19 51 -28 65 -14 68 69 2 74 -32 86 -84 29z"/>
<path d="M1393 5547 c-24 -24 -14 -42 29 -53 25 -7 36 -21 28 -34 -8 -13 -31
-19 -52 -14 -30 8 -38 -1 -38 -38 0 -37 -11 -48 -46 -48 -25 0 -59 -16 -77
-35 -17 -19 -48 -47 -69 -61 -42 -28 62 -23 137 6 26 11 35 4 35 -27 0 -22 14
-49 31 -59 29 -15 29 -19 0 -43 -17 -14 -31 -19 -31 -11 0 8 -13 4 -30 -10
-80 -67 -37 -140 75 -128 58 6 109 15 113 20 5 4 22 -4 38 -17 24 -20 32 -20
39 1 12 35 89 106 102 94 5 -5 -7 -28 -27 -49 -42 -48 8 -85 58 -43 20 17 32
16 50 -6 13 -15 41 -23 62 -18 52 14 80 -51 33 -77 -18 -11 -33 -32 -33 -48 0
-35 -52 -39 -72 -6 -8 13 2 35 22 50 42 30 28 58 -20 40 -48 -19 -61 -75 -23
-103 18 -13 33 -36 33 -50 0 -15 16 -21 42 -14 23 6 37 6 31 0 -6 -6 1 -35 15
-64 39 -75 16 -121 -44 -91 -26 13 -45 32 -44 41 2 9 -7 20 -19 24 -33 11 -4
-95 42 -153 20 -26 30 -58 22 -70 -8 -13 -19 -68 -25 -123 -9 -90 -15 -99 -55
-94 -38 6 -45 -3 -45 -53 0 -33 -9 -63 -21 -67 -11 -3 -24 -29 -27 -56 -14
-110 -36 -157 -69 -150 -18 4 -73 16 -123 28 -102 24 -173 28 -154 9 7 -7 29
-15 48 -17 62 -8 126 -34 126 -51 0 -26 -36 -42 -49 -21 -13 21 -203 6 -253
-19 -17 -10 -51 -12 -75 -6 -45 12 -61 -22 -18 -41 17 -7 11 -21 -20 -44 -75
-55 -53 -68 113 -68 198 0 222 9 222 82 0 32 9 58 20 58 11 0 20 -21 20 -47 0
-26 18 -63 40 -83 22 -20 39 -51 38 -68 -1 -21 -5 -23 -11 -7 -18 45 -40 26
-65 -55 -42 -141 -215 -173 -235 -42 -9 56 -43 69 -95 35 -28 -18 -64 -33 -81
-33 -17 0 -31 -13 -31 -28 0 -16 -11 -33 -25 -38 -14 -5 -18 -16 -9 -26 9 -9
34 -5 56 8 40 26 78 17 78 -17 0 -11 -14 -19 -31 -19 -77 0 -191 -81 -177
-125 7 -24 19 -88 26 -143 7 -58 24 -103 40 -108 19 -6 24 1 16 22 -32 83 196
214 375 214 222 1 245 38 345 547 6 31 26 62 44 68 81 30 112 92 105 211 -8
144 24 151 139 29 83 -87 159 -74 123 20 -8 23 -4 27 15 15 62 -38 256 -6 289
49 8 12 33 16 57 10 24 -6 116 3 204 20 181 35 342 40 359 12 7 -11 24 -15 39
-9 33 13 287 -38 411 -82 48 -17 119 -29 156 -26 47 3 75 -6 88 -30 10 -19 32
-34 48 -34 66 0 2 87 -70 96 -27 3 -68 23 -92 45 -23 21 -57 39 -75 39 -19 0
-52 18 -74 40 -22 22 -62 40 -89 40 -29 0 -58 17 -71 40 -12 22 -42 40 -66 40
-25 0 -63 12 -85 27 -45 31 -189 21 -189 -14 0 -13 32 -24 70 -24 69 -2 107
-19 86 -40 -21 -21 -306 37 -331 67 -22 28 -30 27 -70 -9 -36 -33 -59 -38
-115 -25 -38 8 -79 8 -90 -1 -11 -9 -49 -23 -85 -30 -48 -11 -66 -26 -67 -58
-2 -33 -5 -35 -12 -8 -5 19 -17 35 -27 35 -11 0 -38 19 -61 42 l-41 41 -48
-64 c-26 -36 -44 -72 -38 -80 17 -28 -42 -34 -111 -11 -57 19 -69 32 -66 72 3
28 6 90 7 140 1 49 12 96 24 103 16 10 14 24 -6 49 -16 19 -26 50 -23 69 3 20
-8 68 -24 108 -33 79 -23 139 22 122 17 -6 23 -2 14 12 -8 13 -13 48 -12 80 1
31 -7 61 -17 68 -26 16 -24 89 2 89 14 0 14 12 0 38 -16 30 -41 38 -111 37
-94 -1 -104 -12 -69 -76 23 -44 14 -48 -44 -17 -32 17 -46 14 -66 -13 -14 -20
-35 -29 -47 -22 -12 8 -33 -2 -48 -22 -14 -19 -57 -37 -95 -40 l-69 -4 59 55
c70 65 82 124 25 124 -53 0 -36 44 30 76 30 14 54 40 54 58 0 17 16 44 35 60
21 18 23 23 5 15 -16 -8 -50 -33 -75 -55 -50 -46 -72 11 -23 60 17 17 13 36
-15 74 -39 54 -52 60 -74 39z"/>
<path d="M2173 5387 c-32 -33 37 -82 99 -71 13 3 34 -9 48 -26 30 -36 87 -40
75 -5 -5 14 -19 25 -32 25 -12 0 -23 7 -23 15 0 8 0 25 0 36 0 12 8 16 19 10
10 -6 24 -3 31 9 17 28 -22 25 -70 -5 -32 -20 -48 -20 -80 0 -46 29 -49 29
-67 12z"/>
<path d="M4182 5360 c-2 -45 31 -87 56 -71 31 19 27 51 -6 51 -16 0 -33 11
-39 25 -7 17 -10 15 -11 -5z"/>
<path d="M895 5318 c-34 -20 -49 -78 -20 -78 35 1 68 37 62 66 -5 24 -16 27
-42 12z"/>
<path d="M4285 5226 c1 -64 6 -98 11 -76 4 22 16 49 26 59 27 28 22 83 -10
110 -24 20 -28 5 -27 -93z"/>
<path d="M955 5258 c-19 -11 -35 -34 -35 -51 0 -21 -13 -28 -37 -22 -32 8 -38
-2 -38 -68 0 -65 8 -80 49 -90 33 -8 45 -22 37 -43 -17 -44 32 -68 60 -29 30
40 14 105 -26 105 -25 0 -26 5 -3 32 18 22 45 197 29 187 -1 0 -17 -9 -36 -21z"/>
<path d="M1147 5129 c-16 -42 -5 -47 53 -26 40 16 44 23 20 38 -42 26 -60 23
-73 -12z"/>
<path d="M3290 5099 c-17 -53 19 -98 52 -65 26 26 17 90 -15 100 -13 5 -30
-11 -37 -35z"/>
<path d="M2390 5060 c-7 -22 -26 -40 -41 -40 -35 0 -37 -24 -6 -55 25 -25 137
70 137 115 0 37 -77 20 -90 -20z"/>
<path d="M4815 5067 c-6 -9 20 -62 57 -117 38 -54 68 -88 68 -75 0 38 -113
212 -125 192z"/>
<path d="M1161 5001 c-29 -54 -26 -70 8 -42 16 14 39 19 50 12 12 -8 21 4 21
28 0 52 -52 54 -79 2z"/>
<path d="M2645 4966 c-36 -77 -32 -86 34 -86 76 0 91 27 50 89 -42 64 -53 64
-84 -3z"/>
<path d="M793 4950 c-7 -17 -2 -52 10 -79 25 -55 9 -121 -25 -100 -15 9 -18 1
-9 -27 8 -27 0 -53 -26 -77 -44 -41 -86 -243 -46 -219 13 8 23 26 23 39 0 14
41 56 91 93 49 38 86 79 81 92 -5 13 2 34 15 47 18 18 15 28 -12 43 -25 15
-30 30 -18 52 19 34 9 101 -22 141 -26 33 -48 32 -62 -5z"/>
<path d="M1388 4934 c-42 -44 -15 -114 43 -114 9 0 6 11 -7 24 -33 33 -30 56
6 56 33 0 38 17 14 54 -10 16 -27 11 -56 -20z"/>
<path d="M2833 4967 c-18 -18 -17 -48 2 -43 8 3 34 -6 58 -19 36 -21 43 -19
39 7 -7 47 -71 83 -99 55z"/>
<path d="M2437 4925 c-78 -8 -125 -95 -65 -119 44 -16 88 9 88 51 0 30 11 35
53 27 37 -7 50 -2 43 17 -10 32 -23 34 -119 24z"/>
<path d="M1209 4879 c-30 -33 -33 -49 -14 -78 12 -20 17 -55 11 -79 -18 -71
44 -48 89 33 33 58 32 101 -4 136 -36 37 -38 37 -82 -12z"/>
<path d="M4320 4853 c0 -31 48 -133 62 -133 24 0 23 28 -5 89 -19 42 -57 71
-57 44z"/>
<path d="M2267 4771 c7 -19 13 -42 13 -51 0 -9 18 -12 40 -6 45 12 37 36 -24
68 -36 19 -40 18 -29 -11z"/>
<path d="M4480 4760 c12 -22 29 -40 38 -40 10 0 32 -31 51 -70 28 -59 71 -95
71 -59 0 11 -68 110 -119 173 -40 48 -68 46 -41 -4z"/>
<path d="M1065 4766 c-25 -5 -45 -16 -45 -25 0 -23 53 -41 70 -25 7 8 22 14
32 14 23 0 27 38 5 42 -10 1 -37 -2 -62 -6z"/>
<path d="M2450 4744 c-33 -18 -64 -36 -69 -39 -4 -3 2 -16 15 -29 18 -18 29
-19 48 0 15 15 31 17 47 3 31 -25 78 29 62 71 -15 38 -29 37 -103 -6z"/>
<path d="M1340 4671 c0 -17 -10 -31 -22 -31 -12 0 -18 -10 -14 -21 4 -12 15
-22 26 -22 26 0 52 80 29 94 -10 6 -19 -3 -19 -20z"/>
<path d="M840 4565 c1 -45 34 -98 51 -80 19 18 -7 115 -31 115 -11 0 -20 -16
-20 -35z"/>
<path d="M1461 4543 c-11 -21 -13 -44 -5 -52 8 -8 -4 -12 -26 -8 -29 5 -42 -5
-46 -38 -7 -45 -35 -54 -139 -46 -63 5 -56 -24 14 -55 40 -18 70 -20 95 -7 20
11 52 25 71 31 20 6 35 31 36 56 0 25 13 63 30 85 16 21 29 46 29 55 0 30 -39
16 -59 -21z"/>
<path d="M4190 4461 c-10 -16 90 -101 119 -101 21 0 -50 96 -80 107 -15 6 -33
3 -39 -6z"/>
<path d="M4560 4337 c0 -22 57 -75 83 -76 7 -1 3 21 -10 49 -23 50 -73 69 -73
27z"/>
<path d="M2740 4101 c-139 -20 -249 -89 -283 -178 -11 -30 -28 -43 -48 -36
-32 13 -36 -100 -5 -120 9 -5 16 -38 16 -73 0 -118 191 -296 315 -294 14 0 43
-11 64 -24 33 -21 45 -17 80 23 45 51 52 81 21 81 -11 0 -20 -9 -20 -20 0 -25
-74 -27 -89 -2 -15 25 42 45 149 53 54 4 95 -3 104 -17 11 -18 20 -18 39 1 30
30 57 33 57 6 0 -34 -65 -84 -84 -65 -38 38 -119 -21 -105 -76 14 -58 45 -100
74 -100 12 0 11 10 -2 27 -13 15 -17 33 -9 40 23 23 41 14 52 -27 14 -54 70
-51 78 5 5 36 18 44 66 42 33 -2 49 1 35 7 -37 14 -30 55 15 96 30 27 34 43
18 62 -66 80 120 48 249 -43 52 -36 73 -37 73 -2 0 108 -342 190 -458 109 -36
-25 -58 -29 -85 -14 -21 11 -78 18 -127 15 -103 -5 -120 6 -120 79 0 35 -12
56 -35 60 -24 5 -35 -6 -35 -35 0 -23 -13 -41 -31 -41 -24 0 -26 8 -9 40 13
24 14 40 2 40 -10 0 -22 -11 -27 -25 -7 -19 -16 -18 -43 4 -28 23 -38 23 -51
3 -9 -14 -31 -23 -50 -19 -25 5 -14 20 45 57 49 31 75 60 68 77 -5 16 11 45
38 65 59 45 78 47 78 8 0 -34 31 -40 50 -10 19 30 50 4 50 -41 0 -28 -12 -37
-43 -34 -23 3 -47 -7 -52 -22 -9 -25 334 -18 375 7 7 4 44 0 84 -9 58 -13 78
-9 104 22 31 36 105 54 83 19 -21 -35 42 -57 199 -70 88 -7 186 -18 218 -25
44 -10 55 -6 48 15 -5 17 -62 37 -138 50 -120 21 -124 23 -63 38 72 17 88 50
25 50 -22 0 -58 18 -80 40 -22 22 -63 40 -91 40 -59 0 -49 -33 18 -60 40 -16
39 -18 -12 -19 -30 0 -55 8 -55 19 0 11 -10 20 -23 20 -12 0 -78 34 -145 76
-191 119 -318 143 -572 105z m425 -91 c240 -114 217 -196 -25 -90 -86 38 -185
65 -246 68 -111 6 -145 40 -71 72 71 30 218 9 342 -50z m-425 -9 c0 -10 -18
-24 -39 -31 -22 -7 -63 -40 -91 -74 -52 -62 -96 -62 -57 0 41 67 187 149 187
105z m381 -168 c-20 -20 -125 44 -110 68 5 9 36 1 69 -17 32 -19 51 -41 41
-51z"/>
<path d="M5028 4037 c-7 -12 0 -30 16 -39 44 -24 116 -352 116 -525 0 -139
-162 -451 -235 -452 -14 -1 -25 -19 -25 -41 0 -36 -21 -49 -65 -42 -8 1 -15
-16 -15 -38 0 -26 -13 -40 -38 -40 -70 0 -102 -24 -102 -74 0 -43 7 -49 50
-41 29 5 50 0 50 -13 0 -12 20 2 45 30 25 29 74 64 111 78 47 18 62 35 54 59
-6 21 16 70 55 123 147 196 244 862 149 1013 -20 31 -147 33 -166 2z"/>
<path d="M4879 3949 c-14 -18 -42 -28 -61 -23 -29 8 -31 1 -16 -53 10 -35 18
-65 18 -68 0 -35 62 9 71 50 30 144 30 144 -12 94z"/>
<path d="M3800 3889 c-25 -29 -20 -31 41 -26 76 8 94 43 27 53 -23 3 -54 -9
-68 -27z"/>
<path d="M1797 3805 c-66 -149 -76 -198 -87 -419 -11 -215 -40 -336 -99 -406
-53 -63 -53 -152 1 -202 37 -35 47 -60 38 -95 -8 -34 1 -62 32 -95 44 -47 44
-48 6 -90 -21 -23 -35 -59 -32 -80 4 -21 -7 -44 -24 -50 -17 -7 -37 -42 -43
-79 -8 -38 -27 -71 -46 -76 -30 -8 -30 -9 0 -11 18 -1 37 -21 43 -44 7 -25 21
-36 34 -28 13 8 18 25 13 39 -5 13 -2 37 8 52 10 17 8 33 -4 41 -15 9 -14 26
1 54 26 48 107 80 118 47 12 -36 40 -27 54 16 8 27 29 38 70 37 58 -2 58 -50
1 -86 -11 -6 -14 -24 -8 -41 7 -18 -1 -29 -21 -29 -18 0 -32 -16 -32 -39 0
-41 26 -68 47 -48 20 21 281 22 308 1 17 -12 28 -8 37 14 15 39 42 40 113 3
31 -16 59 -20 66 -10 6 11 3 19 -7 19 -21 0 -48 82 -33 97 5 5 27 -11 49 -37
22 -25 40 -36 40 -23 0 13 22 23 48 23 27 0 53 11 59 25 7 17 23 10 49 -23 21
-26 44 -39 50 -28 7 11 -3 37 -23 58 -19 21 -41 55 -49 75 -8 20 -32 41 -54
47 -22 6 -40 21 -40 33 0 13 -14 49 -30 80 -16 31 -24 67 -17 78 9 14 1 17
-19 9 -22 -8 -29 -3 -21 17 14 36 8 36 -70 -2 -34 -18 -79 -27 -100 -20 -21 7
-57 -4 -85 -26 -126 -98 -308 -128 -352 -57 -7 13 4 16 31 9 45 -12 61 15 18
31 -20 7 -20 17 0 52 23 38 21 45 -22 61 -53 20 -58 173 -14 431 27 156 31
173 50 217 11 25 8 43 -11 55 -24 15 -24 17 0 18 20 0 25 20 16 81 -7 57 -3
85 16 92 35 13 57 104 33 134 -11 13 -26 57 -33 98 -18 94 -31 94 -73 0z m572
-1256 c17 -18 31 -40 31 -50 0 -25 -65 2 -94 40 -17 21 -25 23 -25 6 -1 -14
-10 -25 -20 -25 -11 0 -15 14 -8 30 15 39 76 38 116 -1z m40 -133 c17 -25 31
-56 31 -70 0 -39 -40 -31 -52 9 -6 19 -19 51 -30 70 -27 52 13 44 51 -9z
m-103 -16 c18 -22 34 -52 33 -65 0 -15 -11 -11 -27 10 -14 19 -37 35 -49 35
-13 0 -23 14 -23 30 0 41 25 38 66 -10z"/>
<path d="M3400 3709 c0 -19 144 -72 157 -59 20 20 -59 70 -111 70 -25 0 -46
-5 -46 -11z"/>
<path d="M4704 3643 c-21 -61 -10 -163 18 -163 70 0 105 -270 41 -327 -45 -41
-86 -43 -70 -3 6 17 2 30 -9 30 -11 0 -25 -32 -33 -70 -23 -124 29 -147 116
-50 29 33 66 60 82 60 39 0 131 101 131 144 0 18 9 39 20 46 78 48 95 266 19
242 -128 -40 -123 -40 -116 9 5 34 -7 54 -40 71 -25 13 -56 33 -69 46 -37 37
-69 25 -90 -35z"/>
<path d="M2192 3627 c7 -31 22 -74 33 -95 32 -62 56 5 28 75 -34 82 -79 97
-61 20z"/>
<path d="M4122 3425 c-1 -14 -15 -25 -30 -25 -18 0 -25 -14 -18 -40 6 -22 19
-40 29 -40 25 0 42 51 31 94 -5 20 -10 25 -12 11z"/>
<path d="M2174 3296 c-49 -30 40 -37 97 -7 l58 30 -66 -4 c-37 -3 -77 -11 -89
-19z"/>
<path d="M1561 3201 c-28 -52 -26 -86 4 -76 14 5 26 32 27 62 2 63 -4 66 -31
14z"/>
<path d="M2033 3190 c-7 -16 -26 -30 -42 -30 -17 0 -31 -13 -31 -30 0 -44 72
-37 130 14 37 32 44 48 25 59 -39 25 -70 20 -82 -13z"/>
<path d="M3120 3174 c0 -14 19 -42 43 -62 38 -33 42 -33 30 -3 -7 19 -13 42
-13 50 0 9 -13 22 -30 28 -17 7 -30 1 -30 -13z"/>
<path d="M3675 3155 c-5 -14 12 -40 37 -60 54 -42 68 -44 68 -7 0 39 -94 99
-105 67z"/>
<path d="M2250 3060 c7 -11 0 -20 -16 -20 -28 0 -94 -61 -94 -87 0 -7 10 -13
21 -13 12 0 16 8 10 18 -6 10 3 23 19 29 16 6 29 5 27 -3 -10 -68 4 -85 48
-60 25 13 53 25 63 25 50 2 50 93 0 112 -65 24 -94 24 -78 -1z"/>
<path d="M4119 2838 c-16 -94 -13 -118 13 -118 21 0 25 14 16 55 -13 52 -26
82 -29 63z"/>
<path d="M4595 2711 c-43 -60 -47 -171 -6 -171 42 0 59 39 60 135 1 98 -6 102
-54 36z"/>
<path d="M3784 2323 c2 -67 29 -84 49 -31 7 17 -2 45 -19 63 -29 28 -31 25
-30 -32z"/>
<path d="M1175 2272 c-33 -25 -48 -72 -24 -72 32 0 89 45 89 71 0 36 -19 36
-65 1z"/>
<path d="M3860 2050 c0 -28 43 -90 62 -90 35 0 10 89 -27 96 -19 4 -35 1 -35
-6z"/>
<path d="M3740 1940 c0 -27 13 -40 40 -40 45 0 51 21 16 56 -35 35 -56 29 -56
-16z"/>
<path d="M3660 1900 c0 -22 -9 -40 -20 -40 -11 0 -20 -12 -20 -28 0 -15 -13
-38 -30 -52 -49 -41 -38 -117 20 -132 39 -10 50 -25 50 -70 0 -32 10 -58 23
-58 15 0 19 34 12 101 -5 55 -2 105 7 110 9 6 11 24 5 40 -6 16 -1 42 12 58
18 21 17 38 -3 69 -32 53 -56 54 -56 2z"/>
<path d="M2915 1688 c-7 -7 -7 -25 -1 -40 6 -18 -3 -28 -27 -28 -31 -1 -32 -4
-7 -20 19 -12 32 -12 37 1 3 10 19 19 35 19 15 0 28 8 28 18 0 24 -51 64 -65
50z"/>
<path d="M3180 1590 c0 -45 -9 -68 -25 -65 -14 3 -25 -12 -25 -33 0 -21 11
-42 25 -47 15 -5 25 9 25 32 0 22 9 46 20 53 11 7 20 39 20 71 0 33 -9 59 -20
59 -11 0 -20 -31 -20 -70z"/>
<path d="M1737 1559 c9 -96 65 -130 170 -103 87 23 86 87 -2 115 -36 12 -76
32 -89 45 -53 53 -87 28 -79 -57z"/>
<path d="M2055 1553 c-47 -37 -26 -51 51 -34 35 8 71 16 79 18 8 2 17 10 20
18 9 27 -114 25 -150 -2z"/>
<path d="M2885 1499 c-47 -19 -60 -67 -23 -90 28 -18 65 20 68 71 2 22 3 39 2
39 -1 -1 -22 -10 -47 -20z"/>
<path d="M2004 1416 c-13 -13 -24 -42 -25 -65 0 -44 -52 -125 -68 -108 -6 5
-2 38 8 73 22 77 -5 84 -73 20 -35 -33 -52 -38 -69 -21 -28 28 -145 -46 -125
-78 8 -14 20 -13 34 1 29 29 101 29 83 0 -8 -12 -42 -34 -76 -49 l-63 -27 62
-1 c37 -1 76 15 97 38 42 46 101 8 85 -54 -8 -30 -12 -28 -24 10 -18 55 -50
59 -50 7 0 -47 51 -93 69 -63 20 32 71 25 71 -9 0 -17 20 -32 45 -33 25 -2 63
-5 85 -7 22 -1 65 -10 97 -19 36 -10 73 -7 103 9 25 14 57 18 71 10 16 -10 21
-6 15 12 -5 15 -20 29 -33 31 -12 1 -33 3 -44 5 -12 1 -8 16 9 33 18 17 41 26
52 19 11 -7 20 1 20 17 0 16 14 34 32 41 18 7 27 25 21 42 -15 39 16 38 55 -1
31 -31 72 -24 72 10 0 10 -27 43 -60 74 -33 31 -60 68 -60 81 0 36 -142 18
-163 -21 -13 -23 -35 -28 -78 -20 -42 9 -59 4 -60 -15 0 -16 -20 -4 -46 27
-35 43 -50 50 -69 31z m16 -175 c0 -20 -13 -47 -30 -61 -33 -27 -43 23 -18 88
15 40 48 22 48 -27z m180 10 c0 -27 9 -54 20 -61 40 -25 20 -54 -28 -42 -30 7
-52 2 -58 -13 -7 -19 -15 -19 -34 -2 -19 18 -13 30 26 56 34 22 47 45 40 72
-6 21 -1 39 12 39 12 0 22 -22 22 -49z"/>
<path d="M2787 1362 c13 -67 -2 -91 -40 -59 -34 27 -37 -18 -5 -63 17 -24 23
-25 32 -4 5 15 32 35 58 45 53 20 67 99 18 99 -16 0 -30 9 -30 20 0 11 -10 20
-22 20 -15 0 -19 -21 -11 -58z"/>
<path d="M2745 1082 c-36 -16 -65 -41 -65 -56 0 -32 -52 -35 -71 -4 -10 16
-19 15 -30 -4 -10 -16 -3 -36 17 -53 25 -20 27 -30 9 -38 -14 -6 -25 -20 -25
-32 0 -12 19 -4 42 17 25 23 72 38 115 38 40 0 74 9 75 20 1 11 8 38 17 60 36
96 27 102 -84 52z"/>
<path d="M2860 1032 c0 -15 25 -32 55 -38 69 -13 78 -4 39 35 -39 38 -94 40
-94 3z"/>
<path d="M2399 919 c-30 -58 23 -110 81 -79 22 12 48 17 57 12 9 -5 12 14 8
44 -10 70 -112 86 -146 23z"/>
<path d="M2313 911 c-7 -18 -35 -40 -64 -51 -28 -11 -46 -29 -39 -40 7 -11 4
-20 -7 -20 -11 0 -23 10 -27 21 -9 29 -76 1 -76 -31 0 -26 62 -54 130 -58 44
-2 69 -72 25 -72 -18 0 -27 -24 -27 -70 0 -44 -13 -79 -35 -96 -34 -24 -33
-27 6 -63 40 -36 41 -36 41 3 0 23 13 52 30 66 17 14 27 51 25 84 -6 77 56
126 87 71 11 -20 29 -31 39 -24 11 6 19 -9 20 -35 0 -42 2 -43 21 -10 17 29
27 31 50 13 22 -19 28 -18 27 4 -1 39 -70 117 -105 117 -20 0 -27 13 -20 40 8
31 1 40 -32 40 -23 0 -42 -9 -42 -20 0 -11 -23 -20 -50 -20 l-51 0 54 80 c29
45 48 86 42 91 -5 6 -15 -3 -22 -20z"/>
<path d="M2715 812 c-46 -53 -58 -58 -77 -32 -18 25 -20 24 -10 -7 7 -20 12
-47 13 -60 0 -12 13 -6 29 15 27 35 30 33 62 -35 19 -39 48 -76 64 -83 42 -16
52 1 18 32 -15 15 -24 42 -19 60 5 18 -1 40 -13 47 -31 19 -27 51 7 51 45 0
56 36 17 56 -28 14 -49 4 -91 -44z"/>
<path d="M1934 771 c-23 -17 -29 -32 -15 -40 11 -7 21 -4 21 8 0 11 18 21 40
21 22 0 40 -10 40 -21 0 -12 9 -16 20 -9 13 8 10 23 -8 41 -36 35 -52 35 -98
0z"/>
<path d="M2828 748 c7 -17 12 -46 12 -63 0 -27 5 -26 28 5 32 45 21 90 -22 90
-19 0 -26 -11 -18 -32z"/>
</g>
</svg>
